<?xml version="1.0" encoding="utf-8"?>
<!-- Generator: Adobe Illustrator 27.4.0, SVG Export Plug-In . SVG Version: 6.00 Build 0)  -->
<svg version="1.1" id="Layer_1" xmlns="http://www.w3.org/2000/svg" xmlns:xlink="http://www.w3.org/1999/xlink" x="0px" y="0px"
	 width="300px" height="100px" viewBox="0 0 300 100" style="enable-background:new 0 0 300 100;" xml:space="preserve">
<g>
	<path fill="#000000" d="M105.9,75.1c-1.9,0.9-3.7,2-5.6,2.6c-3.6,1.2-6.9,0.4-9.8-1.9c-0.5-0.4-0.8-0.4-1.5,0c-4.7,3.2-9.8,4.3-15,1.7
		c-4.8-2.4-5.8-5.7-5-10.4c0.5-2.8,1.8-5.5,2.7-8.2c0.6-1.7,1.3-3.4,1.1-5.3c-0.2-1.8-1.5-2.6-3-1.8c-3.4,1.7-6.4,1.1-9-1.8
		c-0.4,1.3-0.8,2.5-1.2,3.7c-2.2,6.4-4.5,12.8-6.7,19.2c-0.7,1.9-1.5,3.5-3.3,4.6C47,78.6,44.4,78,43,75.7c-0.8-1.3-0.7-2.7-0.2-4
		c3.2-9.2,6.4-18.5,9.6-27.7c2-5.8,4.1-11.6,6.2-17.5c0.6-1.6,1.2-3.1,2.6-4.2c1.9-1.4,4-1.6,5.8-0.4c1.6,1,2.4,3.2,1.8,5.3
		c-0.9,2.8-1.9,5.5-2.9,8.2c-0.7,2.1-1.5,4.1-2.3,6.3c0.3-0.1,0.5-0.1,0.8-0.2c2.7-1.1,5.5-1.5,8.3-0.7c0.7,0.2,1-0.1,1.3-0.6
		c1.8-2.9,3.6-5.9,5.3-8.8c1.3-2.2,2.5-4.4,3.7-6.5c1.2-2.1,2.9-3.3,5.3-3.4c3.1-0.1,5.2,2.7,4,5.6c-1,2.5-2.4,4.8-3.8,7.1
		c-1.9,3-3.9,6-6,8.9c-0.5,0.7-1.1,1.3-1.7,2c0,0,0.1,0.2,0.3,0.3c3,3.3,3.4,7,1.9,11c-1.2,3.5-2.6,6.9-3.7,10.4
		c-0.9,2.8-0.3,3.5,2.7,3.4c2.3-0.1,4.4-1.8,5.2-4.2c2.1-6.1,4.2-12.2,6.2-18.3c1.3-3.9,3.5-6.8,7.5-8.2c3.6-1.3,6.9-0.7,10.2,0.8
		c0.9,0.4,1.4,0.4,2.2-0.3c1.9-1.7,4.7-1.7,6.7-0.2c1.5,1.1,1.8,2.6,1.4,4.2c-0.6,2.2-1.4,4.3-2.1,6.5c-1.9,5.6-3.8,11.2-5.6,16.8
		c-0.2,0.7-0.3,1.5-0.3,2.2c0,0.8,0.5,1.3,1.4,1.4c1.7,0.2,3.2-0.4,4.5-1.4c2.2-1.9,3.7-4.4,4.7-7.1c1.5-3.9,2.9-7.9,4.4-11.8
		c0-0.1,0.1-0.1,0.1-0.2c0.9-1.8,1.2-3.6,0.1-5.6c-1.4-2.5-0.5-5,0.8-7.3c1.2-2.2,4-3.1,6.3-2.3c2.5,0.9,4.2,3.5,3.8,6.2
		c-0.1,0.9,0.1,1.2,1,1.5c2.5,0.8,4.8,1.8,6.9,3.4c3.7,2.9,4.6,6,3,10.4c-1.2,3.3-2.4,6.6-3.5,9.9c-0.3,0.9-0.5,1.8-0.6,2.7
		c-0.1,1.4,0.7,2.1,2,1.7c1-0.3,2.1-0.9,2.9-1.7c2.1-1.9,3.3-4.4,4.2-7c3.8-10.6,7.6-21.3,11.5-31.9c0.5-1.5,0.9-3,1.7-4.4
		c0.6-1.1,1.6-2.2,2.6-2.9c2-1.3,4.6-0.3,5.5,2c0.5,1.2,0.6,2.4,0.1,3.7c-1.3,3.6-2.6,7.3-3.9,10.9c0,0.1,0,0.2-0.1,0.5
		c0.8-0.1,1.5-0.3,2.2-0.4c5.4-1.1,10.3,1.9,11.5,7c0.4,1.8,0.2,3.6-0.4,5.3c-1.7,4.9-3.4,9.8-5,14.8c-0.2,0.7-0.5,1.4-0.6,2.1
		c-0.2,1.1,0.4,1.8,1.5,1.9c1.2,0.1,2.4-0.1,3.4-0.8c1.9-1.3,3.5-2.9,4.4-5.2c2.5-6.9,5-13.9,7.5-20.8c0.5-1.4,1-2.9,2.4-3.8
		c1.9-1.2,3.6-1.2,5.4,0.1c1.5,1.1,2.2,3,1.6,4.9c-1,3-2.1,6-3.2,9c-1.5,4.1-3,8.3-4.5,12.4c-0.3,0.9-0.4,1.8-0.5,2.7
		c-0.1,0.9,0.5,1.3,1.4,1.4c1.7,0.1,3-0.5,4.3-1.5c2.1-1.7,3.6-3.8,4.5-6.4c2.3-6.6,4.6-13.2,6.9-19.7c0.7-2,1.9-3.5,4.2-3.8
		c3.3-0.4,5.9,2.9,4.8,6.2c-2.6,7.3-5.1,14.6-7.7,21.9c-0.1,0.4-0.3,0.8-0.4,1.2c-0.4,1.3,0.2,2.1,1.5,2.3c1.3,0.2,2.5-0.2,3.6-0.9
		c2.1-1.3,3.6-3.2,4.4-5.5c1.9-5.2,3.7-10.3,5.6-15.5c0.1-0.2,0.1-0.4,0.1-0.6c-0.8,0-1.5,0-2.2-0.1c-2.8-0.2-3.4-3.1-2.6-4.7
		c0.8-1.7,2.1-2.6,3.9-2.8c1.1-0.1,2.1-0.2,3.2-0.2c0.5,0,0.7-0.2,0.9-0.7c1.5-4.4,3-8.7,4.5-13.1c0.6-1.7,1.3-3.4,3.2-4.1
		c1.8-0.7,3.4-0.3,4.9,0.9c1.5,1.2,1.8,2.7,1.2,4.4c-1.4,4.1-2.8,8.1-4.2,12.2c0,0.1,0,0.2,0,0.3c1.2,0.1,2.4,0.1,3.6,0.3
		c1.4,0.1,2.5,0.8,2.9,2.2c0.4,1.3,0.1,2.5-0.9,3.6c-1.1,1.2-2.6,1.7-4.1,1.8c-1.2,0.1-2.5,0.1-3.7,0.1c-0.5,0-0.8,0.2-1,0.7
		c-1.9,5.5-3.8,11-5.9,16.4c-1.4,3.5,1,5.3,3.6,5.3c3.3,0,5.7-1.7,7.5-4.1c1.4-1.9,2.4-4.1,3.3-6.3c0.8-1.8,1.8-3,3.8-3.3
		c2.6-0.4,4.7,1.7,3.9,4.2c-1.9,5.9-4.9,11-10.3,14.5c-5.6,3.6-13.4,3.6-18.4-0.8c-0.6-0.5-1-0.4-1.5,0c-2.7,2.1-5.8,3.3-9.2,3.2
		c-3.5,0-6.6-1.2-8.9-3.9c-0.5-0.5-0.8-0.2-1.1,0.1c-2.1,1.7-4.3,3.2-7,3.7c-3.5,0.7-6.5-0.1-9.3-2.3c-0.4-0.4-0.7-0.3-1.2-0.1
		c-2.4,1.4-4.8,2.5-7.6,2.6c-4.5,0.2-9.3-1.7-11-6.2c-0.8-2.1-0.7-4.4,0-6.5c1.5-4.5,3-9.1,4.6-13.6c0.4-1.2,0.9-2.3,0.6-3.7
		c-0.2-0.8-0.7-1.3-1.6-1.5c-1.4-0.2-2.5,0-3.6,0.9c-1.8,1.5-3,3.3-3.7,5.5c-2.3,6.9-4.7,13.7-7,20.6c-0.7,1.9-1.7,3.5-3.8,4.2
		c-1.4,0.5-2.6,0.2-3.6-0.7c-0.5-0.5-1-0.5-1.6-0.2c-2.8,1.2-5.6,1.6-8.5,0.5c-5.3-2-7.5-6.2-5.9-11.9c0.9-3.1,2.1-6.1,3.1-9.1
		c0.8-2.3,0.1-3.7-2.3-4.6c-2.1-0.7-2.1-0.7-2.9,1.3c-1.2,3.5-2.3,7-3.6,10.4c-1.2,3-2.6,5.8-4.7,8.3c-3.1,3.7-7,6-11.8,6.2
		c-3.5,0.1-6.9-0.6-9.3-3.5C105.9,75.1,105.8,75,105.9,75.1z M108.9,52.1c-0.1,0-0.1-0.1-0.2-0.1c-0.1-0.6-0.1-1.2-0.3-1.8
		c-0.3-1-0.7-1.9-1.9-2.1c-1.2-0.3-2.3-0.1-2.9,1c-0.9,1.4-1.8,2.8-2.3,4.3c-1.3,3.6-2.3,7.2-3.4,10.8c-0.2,0.8-0.3,1.8-0.3,2.7
		c0,1.2,0.9,2,2.1,2c2,0.1,3.5-1.1,4.2-2.7c1.2-2.6,2.2-5.3,3.1-7.9C107.8,56.2,108.3,54.1,108.9,52.1z"/>
</g>
</svg>
